<svg id="Layer_1" data-name="Layer 1" xmlns="http://www.w3.org/2000/svg" viewBox="0 0 480.93889 85.77219">
  <defs>
    <style>
      .cls-1 {
        fill: #2063e8;
      }
    </style>
  </defs>
  <g>
    <path class="cls-1" d="M38.06945,58.41286a16.09382,16.09382,0,0,1-4.53263,3.49707A13.54531,13.54531,0,0,1,16.83306,59.334,14.84167,14.84167,0,0,1,12.623,48.63538a14.83669,14.83669,0,0,1,4.21007-10.69865,13.37831,13.37831,0,0,1,9.96278-4.37249,13.15772,13.15772,0,0,1,6.741,1.84081,18.1939,18.1939,0,0,1,4.09569,2.92211,15.20025,15.20025,0,0,1,1.4031,1.81793l6.12026-6.12027L43.177,31.86222a21.60368,21.60368,0,0,0-6.53433-4.53263,21.70223,21.70223,0,0,0-9.84687-2.277A22.58954,22.58954,0,0,0,10.253,32.09251a22.97991,22.97991,0,0,0,0,33.06133,22.62537,22.62537,0,0,0,16.54287,7.017,21.11274,21.11274,0,0,0,6.48782-1.034,25.31694,25.31694,0,0,0,5.24561-2.25564,28.13065,28.13065,0,0,0,3.86539-2.8062,23.83233,23.83233,0,0,0,2.3929-2.25564q.55246-.66571.82814-1.03555l-6.11951-6.11874Z" transform="translate(-3.23594 -5.7264)"/>
    <path class="cls-1" d="M69.95645,26.1339a19.866,19.866,0,0,0-3.81887,1.38023,22.69394,22.69394,0,0,0-2.82984,1.702A15.91669,15.91669,0,0,0,61.5592,30.5735l-.59861.59937V26.47858H51.52778V71.71182h9.43281V47.23227q0-6.25905,3.19816-9.73325a11.101,11.101,0,0,1,8.58179-3.4742,17.91433,17.91433,0,0,1,4.23371.46058V25.51166H74.6271A17.99134,17.99134,0,0,0,69.95645,26.1339Z" transform="translate(-3.23594 -5.7264)"/>
    <path class="cls-1" d="M104.09833,59.47128,90.89164,26.47858H80.999L99.4048,71.71182l-1.88656,4.69429q-2.62281,6.57932-8.00683,6.62507a13.61743,13.61743,0,0,1-4.73928-.96539v8.51164l.6436.18454a13.56589,13.56589,0,0,0,2.43941.50633,25.68021,25.68021,0,0,0,3.54284.2303,11.76435,11.76435,0,0,0,8.58179-3.35982q3.42807-3.35829,6.92553-11.73267l20.29311-49.92753H117.305Z" transform="translate(-3.23594 -5.7264)"/>
    <path class="cls-1" d="M155.2429,25.51166a18.93371,18.93371,0,0,0-7.77654,1.70354,21.57363,21.57363,0,0,0-4.99245,2.76045q-1.17357,1.05919-1.81793,1.702v-5.1991h-9.4328v65.02h9.4328V66.51272l.64436.68935a22.06521,22.06521,0,0,0,1.90944,1.49613,25.86488,25.86488,0,0,0,3.01438,1.84081,18.33578,18.33578,0,0,0,4.09492,1.49461,20.19025,20.19025,0,0,0,4.92382.59784,20.8961,20.8961,0,0,0,15.57671-6.87825,23.20651,23.20651,0,0,0,6.6022-16.68165,23.20548,23.20548,0,0,0-6.6022-16.68013A20.89766,20.89766,0,0,0,155.2429,25.51166Zm8.60543,34.23567a12.47727,12.47727,0,0,1-19.05091,0,15.02017,15.02017,0,0,1-4.14144-10.6529,15.01907,15.01907,0,0,1,4.14144-10.65136,12.47725,12.47725,0,0,1,19.05091,0A15.0184,15.0184,0,0,1,167.989,49.09443,15.01949,15.01949,0,0,1,163.84833,59.74733Z" transform="translate(-3.23594 -5.7264)"/>
    <path class="cls-1" d="M206.27537,63.93528a11.5635,11.5635,0,0,1-2.23124.23029,5.49079,5.49079,0,0,1-4.04916-1.61051,5.60614,5.60614,0,0,1-1.61052-4.1422V34.946h9.43281V26.47858h-9.43281V11.38609H189.917v9.4328q0,5.6597-4.69429,5.65969h-4.73852V34.946h8.51317v23.5599q-.048,14.12633,13.16017,14.12557a21.34619,21.34619,0,0,0,6.62508-.91964V63.24441l-.68935.18453A9.43841,9.43841,0,0,1,206.27537,63.93528Z" transform="translate(-3.23594 -5.7264)"/>
    <path class="cls-1" d="M297.86433,31.6792l-.64512-.69087a15.80566,15.80566,0,0,0-1.88656-1.49614,28.6968,28.6968,0,0,0-3.01362-1.8408,18.47593,18.47593,0,0,0-4.09492-1.51749,19.7608,19.7608,0,0,0-4.94746-.62224,20.82387,20.82387,0,0,0-15.55307,6.87977,22.94912,22.94912,0,0,0-6.40508,13.72913,96.25759,96.25759,0,0,0-11.0072-13.33584c-.07416-.076-.13659-.156-.21189-.23163a22.95153,22.95153,0,0,0-33.08422,0,22.97647,22.97647,0,0,0,0,33.06134,23.00689,23.00689,0,0,0,33.08422,0,23.1852,23.1852,0,0,0,6.24018-10.57617c5.26344,6.21426,11.31069,12.41411,15.8844,14.409a20.22952,20.22952,0,0,0,11.05266,3.18424,19.147,19.147,0,0,0,7.77654-1.67915,21.17011,21.17011,0,0,0,4.99321-2.73757q1.17357-1.0592,1.81793-1.702v5.1991h9.43281V5.7264h-9.43281ZM247.68363,49.096a14.88184,14.88184,0,0,1-4.18642,10.69712,13.51036,13.51036,0,0,1-19.90269,0A14.83944,14.83944,0,0,1,219.38369,49.096a14.8405,14.8405,0,0,1,4.21083-10.69865,13.51036,13.51036,0,0,1,19.90269,0,15.76168,15.76168,0,0,1,1.23457,1.47593v.08941s.33372.48079.92041,1.30177A15.22818,15.22818,0,0,1,247.68363,49.096Zm46.0385,10.65137a12.45179,12.45179,0,0,1-19.02727,0A14.97461,14.97461,0,0,1,270.52978,49.096a14.97562,14.97562,0,0,1,4.16508-10.65289,12.45177,12.45177,0,0,1,19.02727,0,15.02079,15.02079,0,0,1,4.1422,10.65289A15.01977,15.01977,0,0,1,293.72213,59.74733Z" transform="translate(-3.23594 -5.7264)"/>
    <path class="cls-1" d="M338.22027,25.51166a22.21614,22.21614,0,0,0-16.2897,6.78826A22.24255,22.24255,0,0,0,315.1423,48.6125a23.28179,23.28179,0,0,0,6.97128,16.95617,22.5087,22.5087,0,0,0,16.58862,7.06279,23.70685,23.70685,0,0,0,6.97128-1.034A27.01732,27.01732,0,0,0,351.173,69.3418a27.6601,27.6601,0,0,0,4.00341-2.80621A25.1701,25.1701,0,0,0,357.638,64.28c.3828-.44381.668-.79.851-1.03555l-6.12026-6.12027-1.426,1.7493a16.17469,16.17469,0,0,1-4.85443,3.49708,15.68307,15.68307,0,0,1-7.38611,1.79505,13.85875,13.85875,0,0,1-9.45568-3.49708,13.56808,13.56808,0,0,1-4.71716-8.28287h35.33985l.50633-4.69429a21.62526,21.62526,0,0,0-22.15527-22.17967ZM324.94419,44.37879a14.78151,14.78151,0,0,1,4.66988-7.79941,13.82036,13.82036,0,0,1,17.23375,0,12.94833,12.94833,0,0,1,4.27946,7.79941Z" transform="translate(-3.23594 -5.7264)"/>
    <path class="cls-1" d="M389.22758,63.93528a11.56358,11.56358,0,0,1-2.23124.23029,5.49081,5.49081,0,0,1-4.04917-1.61051,5.60618,5.60618,0,0,1-1.61051-4.1422V34.946h9.4328V26.47858h-9.4328V11.38609h-8.46741v9.4328q0,5.6597-4.69429,5.65969h-4.73852V34.946h8.51316v23.5599q-.048,14.12633,13.16018,14.12557a21.34619,21.34619,0,0,0,6.62508-.91964V63.24441l-.68935.18453A9.43841,9.43841,0,0,1,389.22758,63.93528Z" transform="translate(-3.23594 -5.7264)"/>
    <path class="cls-1" d="M415.5464,25.51166a23.03016,23.03016,0,0,0-6.41919.89829,20.83843,20.83843,0,0,0-4.99321,2.04669,26.97536,26.97536,0,0,0-3.56571,2.60032,22.90971,22.90971,0,0,0-2.1626,2.02534q-.4827.57422-.75951.94252l6.12027,6.12027,1.243-1.61052a11.308,11.308,0,0,1,4.02629-3.01362,14.07244,14.07244,0,0,1,6.51069-1.49613,9.61992,9.61992,0,0,1,6.78674,2.43865,7.87044,7.87044,0,0,1,2.64607,6.02876l-16.51847,2.852A16.37483,16.37483,0,0,0,398.82052,50.13a13.17424,13.17424,0,0,0-3.52148,9.3413q0,5.15412,4.5555,9.15829a16.73374,16.73374,0,0,0,11.45816,4.00189,18.37105,18.37105,0,0,0,4.64853-.59784,19.73764,19.73764,0,0,0,3.81888-1.35735,20.66407,20.66407,0,0,0,2.82908-1.702,19.72617,19.72617,0,0,0,1.7493-1.35734q.43694-.41407.62072-.59937v4.69429h9.4328V42.49223a15.81211,15.81211,0,0,0-5.2906-12.07887Q423.83,25.51318,415.5464,25.51166Zm9.43281,25.448q0,6.34827-3.24391,9.77748t-8.9951,3.42845a9.287,9.287,0,0,1-5.8671-1.70355,4.94077,4.94077,0,0,1-2.187-3.95613,5.57626,5.57626,0,0,1,1.56476-4.04917,7.37182,7.37182,0,0,1,4.09645-2.0711l14.63191-2.34714Z" transform="translate(-3.23594 -5.7264)"/>
    <path class="cls-1" d="M474.28144,26.47858l-13.20593,32.9927-13.20593-32.9927H437.9762l18.40655,45.23324-1.88809,4.69429q-2.62165,6.57932-8.0053,6.62507a13.62492,13.62492,0,0,1-4.74-.96539v8.51164l.64359.18454a13.56966,13.56966,0,0,0,2.43866.50633,25.69465,25.69465,0,0,0,3.54435.2303,11.768,11.768,0,0,0,8.5818-3.35982q3.42692-3.35829,6.92552-11.73267l20.29159-49.92753Z" transform="translate(-3.23594 -5.7264)"/>
    <path class="cls-1" d="M238.18325,48.75586a4.90847,4.90847,0,1,0,4.90847,4.90847A4.90854,4.90854,0,0,0,238.18325,48.75586Z" transform="translate(-3.23594 -5.7264)"/>
    <circle class="cls-1" cx="284.54904" cy="47.93793" r="4.90847"/>
  </g>
</svg>
