<svg id="Layer_1" data-name="Layer 1" xmlns="http://www.w3.org/2000/svg" viewBox="0 0 30.27975 30.1709">
  <defs>
    <style>
      .cls-1 {
        fill: #2063e8;
      }
    </style>
  </defs>
  <g>
    <path class="cls-1" d="M23.16481,22.27588a10.30562,10.30562,0,0,1-2.90234,2.23926,8.67339,8.67339,0,0,1-10.6958-1.64942,9.50346,9.50346,0,0,1-2.69581-6.85058A9.50027,9.50027,0,0,1,9.56667,9.16455a8.56643,8.56643,0,0,1,6.37939-2.7998,8.42518,8.42518,0,0,1,4.31641,1.17871A11.65049,11.65049,0,0,1,22.885,9.41455a9.73336,9.73336,0,0,1,.89843,1.16406l3.91895-3.91894L26.43532,5.2749a13.83337,13.83337,0,0,0-4.18408-2.90234,13.89643,13.89643,0,0,0-6.30518-1.458A14.46457,14.46457,0,0,0,5.35329,5.42236,14.5203,14.5203,0,0,0,.86012,16.01514,14.47167,14.47167,0,0,0,5.35329,26.59229a14.48754,14.48754,0,0,0,10.59277,4.49316,13.51884,13.51884,0,0,0,4.1543-.66211A16.21086,16.21086,0,0,0,23.45924,28.979a18.01234,18.01234,0,0,0,2.4751-1.79687,15.25979,15.25979,0,0,0,1.53223-1.44434q.35376-.42627.53027-.66308l-3.91846-3.918Z" transform="translate(-0.86012 -0.91455)"/>
    <path class="cls-1" d="M16.42277,12.857A3.143,3.143,0,1,0,19.56577,16,3.14306,3.14306,0,0,0,16.42277,12.857Z" transform="translate(-0.86012 -0.91455)"/>
    <path class="cls-1" d="M27.99687,12.857A3.143,3.143,0,1,0,31.13988,16,3.143,3.143,0,0,0,27.99687,12.857Z" transform="translate(-0.86012 -0.91455)"/>
  </g>
</svg>
